<?xml version="1.0" encoding="utf-8"?>
<!-- Generator: Adobe Illustrator 28.0.0, SVG Export Plug-In . SVG Version: 6.00 Build 0)  -->
<svg version="1.1" id="Layer_1" xmlns="http://www.w3.org/2000/svg" xmlns:xlink="http://www.w3.org/1999/xlink" x="0px" y="0px"
	 viewBox="0 0 48 48" style="enable-background:new 0 0 48 48;" xml:space="preserve">
<style type="text/css">
	.st0{fill:#2782C3;}
	.st1{fill:#7BC156;}
</style>
<path class="st0" d="M12.56,18.87c-0.31-0.44-0.61-0.87-0.91-1.31c-0.4-0.58-0.79-1.16-1.19-1.74c-0.49-0.72-0.99-1.45-1.49-2.17
	c-0.25-0.37-0.25-0.37,0.01-0.74c0.88-1.21,1.88-2.3,3.02-3.27c1.63-1.38,3.45-2.47,5.45-3.23c1.68-0.64,3.42-1.02,5.21-1.15
	c2.16-0.16,4.28,0.04,6.36,0.61c1.68,0.46,3.26,1.14,4.75,2.05c1.56,0.95,2.95,2.11,4.18,3.46c0.8,0.88,1.5,1.83,2.12,2.84
	c0.86,1.41,1.53,2.92,1.98,4.51c0.47,1.64,0.71,3.31,0.72,5.01c0,0.04,0.01,0.08,0.01,0.14c1.06,0,2.11,0,3.21,0
	c-2.09,3.05-4.17,6.08-6.26,9.13c-2.09-3.04-4.16-6.06-6.26-9.12c1.08,0,2.12,0,3.16,0c0.12-4.6-2.83-9.99-8.61-11.93
	C22.52,10.11,15.56,12.29,12.56,18.87z"/>
<path class="st1" d="M5.19,23.73c-1.05,0-2.1,0-3.19,0c2.1-3.05,4.17-6.08,6.26-9.12c2.08,3.04,4.16,6.06,6.25,9.11
	c-1.07,0-2.11,0-3.16,0c-0.16,4.08,2.34,9.34,7.7,11.57c3.15,1.31,6.34,1.33,9.51,0.06c3.17-1.27,5.43-3.51,6.87-6.62
	c0.21,0.3,0.41,0.59,0.61,0.88c0.49,0.71,0.97,1.42,1.45,2.13c0.57,0.83,1.14,1.66,1.71,2.49c0.03,0.04,0.03,0.15,0,0.19
	c-0.55,0.78-1.13,1.54-1.82,2.2c-0.66,0.63-1.33,1.26-2.03,1.84c-1.02,0.83-2.15,1.5-3.34,2.07c-1.11,0.53-2.25,0.96-3.44,1.26
	c-1.7,0.44-3.42,0.64-5.18,0.59c-1.75-0.05-3.46-0.34-5.14-0.87c-1.55-0.49-3.01-1.18-4.38-2.05c-1.11-0.71-2.13-1.53-3.07-2.45
	c-1.11-1.09-2.07-2.3-2.88-3.63c-1.01-1.65-1.74-3.42-2.19-5.31c-0.33-1.37-0.5-2.75-0.51-4.16C5.2,23.85,5.2,23.79,5.19,23.73z"/>
</svg>
